<?xml version="1.0" encoding="utf-8"?><!-- Uploaded to: SVG Repo, www.svgrepo.com, Generator: SVG Repo Mixer Tools -->
<svg width="800px" height="800px" viewBox="0 0 24 24" fill="none" xmlns="http://www.w3.org/2000/svg">
<path d="M9.65202 4.56614C9.85537 3.65106 10.667 3 11.6044 3H12.3957C13.3331 3 14.1447 3.65106 14.3481 4.56614L14.551 5.47935C15.2121 5.73819 15.8243 6.09467 16.3697 6.53105L17.2639 6.24961C18.1581 5.96818 19.1277 6.34554 19.5964 7.15735L19.9921 7.84264C20.4608 8.65445 20.3028 9.68287 19.612 10.3165L18.9218 10.9496C18.9733 11.2922 19.0001 11.643 19.0001 12C19.0001 12.357 18.9733 12.7078 18.9218 13.0504L19.612 13.6835C20.3028 14.3171 20.4608 15.3455 19.9921 16.1574L19.5965 16.8426C19.1278 17.6545 18.1581 18.0318 17.2639 17.7504L16.3698 17.4689C15.8243 17.9053 15.2121 18.2618 14.551 18.5206L14.3481 19.4339C14.1447 20.3489 13.3331 21 12.3957 21H11.6044C10.667 21 9.85537 20.3489 9.65202 19.4339L9.44909 18.5206C8.78796 18.2618 8.17579 17.9053 7.63034 17.4689L6.73614 17.7504C5.84199 18.0318 4.87234 17.6545 4.40364 16.8426L4.00798 16.1573C3.53928 15.3455 3.69731 14.3171 4.38811 13.6835L5.07833 13.0504C5.02678 12.7077 5.00005 12.357 5.00005 12C5.00005 11.643 5.02678 11.2922 5.07833 10.9496L4.38813 10.3165C3.69732 9.68288 3.5393 8.65446 4.008 7.84265L4.40365 7.15735C4.87235 6.34554 5.842 5.96818 6.73616 6.24962L7.63035 6.53106C8.1758 6.09467 8.78796 5.73819 9.44909 5.47935L9.65202 4.56614Z" stroke="#000000" stroke-width="2" stroke-linecap="round" stroke-linejoin="round"/>
<path d="M13 12C13 12.5523 12.5523 13 12 13C11.4477 13 11 12.5523 11 12C11 11.4477 11.4477 11 12 11C12.5523 11 13 11.4477 13 12Z" stroke="#000000" stroke-width="2" stroke-linecap="round" stroke-linejoin="round"/>
</svg>